<!-- Graphic -->
<svg xmlns="http://www.w3.org/2000/svg" width="148" height="42">
  <path d="M 47.499 21.542 C 47.499 18.966 49.287 17.232 51.836 17.232 C 54.355 17.232 56.108 18.901 56.108 21.526 L 56.108 25.446 L 53.867 25.446 L 53.867 24.119 C 53.445 25.107 52.536 25.657 51.381 25.657 C 49.595 25.656 47.499 24.329 47.499 21.542 Z M 53.671 21.444 C 53.671 20.294 52.923 19.501 51.819 19.501 C 50.716 19.501 49.967 20.294 49.967 21.444 C 49.967 22.594 50.715 23.388 51.819 23.388 C 52.924 23.388 53.672 22.594 53.672 21.444 Z M 57.958 13.943 L 60.396 13.943 L 60.396 25.446 L 57.958 25.446 Z M 62.166 15.159 C 62.166 14.529 62.546 13.962 63.129 13.721 C 63.712 13.481 64.383 13.614 64.829 14.059 C 65.275 14.504 65.409 15.174 65.167 15.755 C 64.925 16.336 64.356 16.715 63.725 16.714 C 63.308 16.725 62.905 16.565 62.61 16.27 C 62.316 15.976 62.155 15.574 62.166 15.159 Z M 62.507 17.443 L 64.943 17.443 L 64.943 25.446 L 62.507 25.446 Z M 66.8 21.299 C 66.8 18.609 68.391 17.232 70.763 17.232 C 73.135 17.232 74.726 18.593 74.726 21.299 L 74.726 25.446 L 72.285 25.446 L 72.285 21.299 C 72.285 20.034 71.668 19.501 70.758 19.501 C 69.848 19.501 69.231 20.034 69.231 21.299 L 69.231 25.446 L 66.8 25.446 Z M 75.988 21.444 C 75.988 19.015 77.774 17.232 80.308 17.232 C 82.842 17.232 84.58 19.015 84.58 21.444 L 84.58 22.125 L 78.522 22.125 C 78.717 23.065 79.431 23.486 80.308 23.486 C 81.007 23.486 81.527 23.34 81.836 22.902 L 84.354 22.902 C 83.834 24.556 82.306 25.656 80.308 25.656 C 77.774 25.656 75.988 23.875 75.988 21.444 Z M 82.079 20.586 C 81.803 19.759 81.153 19.403 80.308 19.403 C 79.464 19.403 78.814 19.776 78.571 20.586 Z M 85.522 21.542 C 85.522 18.966 87.309 17.232 89.859 17.232 C 92.377 17.232 94.131 18.901 94.131 21.526 L 94.131 25.446 L 91.889 25.446 L 91.889 24.119 C 91.467 25.107 90.558 25.657 89.404 25.657 C 87.614 25.656 85.522 24.329 85.522 21.542 Z M 91.693 21.444 C 91.693 20.294 90.946 19.501 89.842 19.501 C 88.738 19.501 87.989 20.294 87.989 21.444 C 87.989 22.594 88.737 23.388 89.842 23.388 C 90.947 23.388 91.695 22.594 91.695 21.444 Z M 95.982 13.943 L 97.071 13.943 L 97.071 18.998 C 97.64 17.848 98.712 17.232 100.109 17.232 C 102.253 17.232 103.91 18.528 103.91 21.267 L 103.91 25.446 L 102.821 25.446 L 102.821 21.267 C 102.821 19.29 101.683 18.237 99.945 18.237 C 98.208 18.237 97.07 19.324 97.07 21.267 L 97.07 25.446 L 95.981 25.446 Z M 105.174 21.444 C 105.174 19.015 106.962 17.232 109.496 17.232 C 112.03 17.232 113.783 19.015 113.783 21.444 L 113.783 21.806 L 106.295 21.806 C 106.441 23.474 107.693 24.657 109.496 24.657 C 110.763 24.657 111.737 24.139 112.257 23.215 L 113.442 23.215 C 112.825 24.689 111.363 25.661 109.496 25.661 C 106.962 25.656 105.174 23.875 105.174 21.444 Z M 112.647 20.829 C 112.387 19.209 111.12 18.237 109.501 18.237 C 107.827 18.237 106.576 19.257 106.332 20.829 Z M 114.721 21.494 C 114.721 18.998 116.509 17.232 119.043 17.232 C 121.577 17.232 123.347 18.966 123.347 21.494 L 123.347 25.446 L 122.345 25.446 L 122.345 23.469 C 121.776 24.896 120.444 25.656 118.884 25.656 C 116.626 25.656 114.721 24.053 114.721 21.494 Z M 122.258 21.444 C 122.258 19.598 120.959 18.237 119.043 18.237 C 117.126 18.237 115.826 19.598 115.826 21.444 C 115.826 23.291 117.126 24.652 119.043 24.652 C 120.959 24.652 122.262 23.293 122.262 21.444 Z M 125.249 13.943 L 126.339 13.943 L 126.339 25.446 L 125.249 25.446 Z M 128.238 22.498 L 128.238 14.603 L 129.328 14.603 L 129.328 17.438 L 134.054 17.438 L 134.054 18.427 L 129.328 18.427 L 129.328 22.493 C 129.328 23.951 130.14 24.647 131.385 24.647 C 132.63 24.647 133.442 23.967 133.442 22.493 L 133.442 22.314 L 134.497 22.314 L 134.497 22.493 C 134.497 24.599 133.23 25.651 131.379 25.651 C 129.527 25.651 128.238 24.604 128.238 22.498 Z M 136.132 13.943 L 137.221 13.943 L 137.221 18.998 C 137.79 17.848 138.862 17.232 140.259 17.232 C 142.403 17.232 144.06 18.528 144.06 21.267 L 144.06 25.446 L 142.971 25.446 L 142.971 21.267 C 142.971 19.29 141.833 18.237 140.095 18.237 C 138.358 18.237 137.22 19.324 137.22 21.267 L 137.22 25.446 L 136.131 25.446 Z" fill="rgb(255,255,255)"></path>
  <path d="M 27.16 3.543 L 15.831 3.543 C 9.297 3.543 4.001 8.826 4.001 15.342 L 4.001 26.641 C 4.001 29.77 5.247 32.771 7.466 34.983 C 9.684 37.196 12.694 38.439 15.831 38.438 L 27.16 38.438 C 30.298 38.439 33.307 37.196 35.525 34.983 C 37.744 32.771 38.99 29.77 38.989 26.641 L 38.989 15.342 C 38.99 12.213 37.744 9.212 35.525 6.999 C 33.307 4.787 30.298 3.543 27.16 3.543 Z M 29.273 13.078 C 29.273 13.423 28.993 13.703 28.646 13.703 L 27.261 13.703 L 27.261 26.774 C 26.125 26.774 25.204 25.855 25.204 24.722 L 25.204 13.763 L 23.146 13.763 L 23.146 30.322 C 22.605 30.322 22.086 30.108 21.703 29.727 C 21.32 29.345 21.105 28.827 21.105 28.287 L 21.105 23.942 L 20.073 23.942 C 18.957 23.942 17.841 23.967 16.727 23.934 C 13.483 23.839 10.867 21.138 10.836 17.878 C 10.8 14.603 13.333 11.787 16.579 11.707 C 20.724 11.613 24.872 11.676 29.018 11.673 L 29.271 11.673 Z" fill="rgb(242,129,89)"></path>
  <path d="M 17.039 13.721 C 14.692 13.73 12.884 15.509 12.882 17.804 C 12.88 20.1 14.69 21.892 17.028 21.908 C 18.186 21.916 19.343 21.908 20.501 21.908 C 20.681 21.908 20.864 21.881 21.061 21.865 L 21.061 13.721 C 19.682 13.72 18.36 13.716 17.039 13.721 Z" fill="rgb(242,129,89)"></path>
</svg>